<?xml version="1.0" standalone="no"?>
<!DOCTYPE svg PUBLIC "-//W3C//DTD SVG 20010904//EN"
 "http://www.w3.org/TR/2001/REC-SVG-20010904/DTD/svg10.dtd">
<svg version="1.0" xmlns="http://www.w3.org/2000/svg"
 width="300.000000pt" height="114.000000pt" viewBox="0 0 300.000000 114.000000"
 preserveAspectRatio="xMidYMid meet">

<g transform="translate(0.000000,114.000000) scale(0.100000,-0.100000)"
fill="#000000" stroke="none">
<path d="M1954 987 c-57 -113 -116 -196 -196 -273 -75 -73 -190 -154 -266
-188 -23 -10 -42 -22 -42 -25 0 -4 14 -12 32 -19 28 -10 38 -9 85 13 196 90
382 287 462 492 l20 51 -30 11 c-29 10 -29 10 -65 -62z"/>
<path d="M1423 802 c-7 -4 -28 -42 -48 -84 -31 -67 -39 -77 -67 -83 -48 -11
-104 -41 -122 -67 -19 -27 -21 -89 -4 -106 19 -19 72 -14 101 8 14 11 27 20
30 20 3 0 7 -9 10 -20 7 -26 71 -29 81 -4 9 22 8 22 -16 26 -21 3 -23 8 -20
51 1 34 13 68 36 110 19 34 44 83 55 110 l20 47 -22 0 c-12 0 -27 -4 -34 -8z
m-103 -221 c0 -5 -17 -28 -38 -51 -27 -31 -43 -42 -55 -37 -22 8 -21 19 4 51
28 36 89 61 89 37z"/>
<path d="M1517 790 c3 -11 7 -20 9 -20 2 0 4 9 4 20 0 11 -4 20 -9 20 -5 0 -7
-9 -4 -20z"/>
<path d="M1550 788 c0 -19 2 -20 10 -8 13 19 13 30 0 30 -5 0 -10 -10 -10 -22z"/>
<path d="M1590 803 c0 -5 5 -15 10 -23 8 -12 10 -11 10 8 0 12 -4 22 -10 22
-5 0 -10 -3 -10 -7z"/>
<path d="M1570 780 c0 -5 5 -10 10 -10 6 0 10 5 10 10 0 6 -4 10 -10 10 -5 0
-10 -4 -10 -10z"/>
<path d="M162 684 c-72 -37 -124 -131 -103 -187 14 -35 46 -47 127 -47 60 0
65 2 74 26 6 14 10 27 10 30 0 2 -24 4 -52 4 l-53 1 35 18 c106 57 127 163 35
169 -22 1 -55 -5 -73 -14z m68 -52 c0 -15 -86 -82 -105 -82 -13 0 -2 22 29 54
30 32 76 49 76 28z"/>
<path d="M1919 652 c-184 -93 -355 -274 -434 -461 -26 -62 -26 -66 -9 -78 30
-22 42 -15 69 44 89 195 238 350 445 461 l74 41 -28 11 c-16 6 -32 13 -36 15
-4 2 -40 -13 -81 -33z"/>
<path d="M635 628 c-11 -6 -32 -22 -48 -36 l-27 -26 6 32 c6 30 5 32 -23 32
-30 0 -30 0 -35 -68 -4 -51 -15 -91 -47 -160 -22 -51 -41 -94 -41 -97 0 -3 11
-5 24 -5 25 0 35 16 72 110 10 25 31 64 47 88 35 52 106 107 121 92 18 -18
-12 -59 -62 -84 -27 -14 -52 -32 -55 -41 -5 -13 5 -15 63 -15 59 0 71 3 80 20
9 16 8 20 -5 20 -20 0 -19 5 6 40 24 32 28 72 9 95 -15 17 -56 19 -85 3z"/>
<path d="M335 598 c4 -18 9 -42 12 -54 3 -16 -7 -31 -38 -58 l-43 -36 40 0
c22 0 45 5 52 12 9 9 15 9 24 0 19 -19 66 -15 78 8 9 17 8 20 -8 20 -43 0 -42
22 4 74 24 28 44 54 44 58 0 5 -13 8 -28 8 -20 0 -35 -9 -51 -31 l-24 -32 -13
32 c-9 21 -20 31 -34 31 -19 0 -21 -4 -15 -32z"/>
<path d="M835 611 c-77 -35 -124 -125 -77 -150 25 -13 155 -12 164 2 12 19 10
24 -13 30 -21 6 -22 16 -5 58 6 13 2 15 -19 11 -18 -3 -30 -14 -37 -33 -10
-28 -32 -44 -49 -33 -30 18 16 67 81 84 76 20 96 50 33 50 -21 0 -56 -9 -78
-19z"/>
<path d="M1071 609 c-27 -16 -32 -17 -28 -5 5 12 0 16 -21 16 -25 0 -30 -7
-57 -77 -17 -42 -32 -81 -34 -86 -6 -16 53 3 63 20 14 26 78 94 83 89 3 -3 -3
-25 -12 -50 -9 -24 -14 -49 -10 -55 10 -18 82 -14 89 5 8 21 8 21 -14 27 l-20
5 20 52 c16 40 18 55 9 66 -15 19 -28 18 -68 -7z"/>
<path d="M1961 508 c1 -24 4 -33 6 -20 2 12 8 22 13 22 5 0 11 -10 13 -22 3
-13 4 -5 4 17 -2 29 -7 41 -19 43 -15 3 -18 -4 -17 -40z m29 22 c0 -5 -4 -10
-10 -10 -5 0 -10 5 -10 10 0 6 5 10 10 10 6 0 10 -4 10 -10z"/>
<path d="M2493 530 c3 -11 1 -22 -4 -25 -16 -11 3 -35 26 -33 15 2 23 8 22 19
-1 10 -5 15 -9 13 -4 -3 -8 2 -8 11 0 9 -4 13 -10 10 -5 -3 -10 -2 -10 4 0 5
6 12 13 14 7 3 4 6 -7 6 -14 1 -17 -4 -13 -19z m24 -46 c-9 -9 -28 6 -21 18 4
6 10 6 17 -1 6 -6 8 -13 4 -17z"/>
<path d="M2580 531 c0 -10 7 -21 15 -25 8 -3 15 -10 15 -17 0 -6 -7 -9 -15 -5
-8 3 -15 1 -15 -4 0 -16 30 -11 37 6 4 10 0 20 -10 26 -21 11 -22 32 -1 24 8
-3 12 -2 9 4 -11 17 -35 11 -35 -9z"/>
<path d="M2683 515 c0 -22 2 -30 4 -17 2 12 2 30 0 40 -3 9 -5 -1 -4 -23z"/>
<path d="M2229 536 c-3 -3 -4 -20 -1 -36 5 -36 26 -35 29 1 l2 24 -8 -25 c-8
-24 -8 -24 -12 8 -2 19 -7 31 -10 28z"/>
<path d="M2810 512 c0 -17 3 -33 8 -35 9 -6 8 50 -1 60 -4 3 -7 -8 -7 -25z"/>
<path d="M2036 517 c3 -10 9 -15 12 -12 3 3 0 11 -7 18 -10 9 -11 8 -5 -6z"/>
<path d="M2077 523 c-10 -10 -8 -41 2 -48 5 -3 13 0 17 6 4 8 3 9 -4 5 -8 -5
-12 1 -12 14 0 13 4 19 12 14 7 -4 8 -3 4 4 -8 14 -10 14 -19 5z"/>
<path d="M2182 500 c0 -19 2 -27 5 -17 2 9 2 25 0 35 -3 9 -5 1 -5 -18z"/>
<path d="M2279 498 c4 -28 6 -29 9 -9 2 13 0 27 -5 32 -6 6 -7 -3 -4 -23z"/>
<path d="M2337 523 c-11 -10 -8 -41 4 -49 6 -3 16 -1 22 5 9 9 7 10 -7 5 -16
-6 -18 -4 -14 19 6 29 5 31 -5 20z"/>
<path d="M2382 500 c0 -19 2 -27 5 -17 2 9 2 25 0 35 -3 9 -5 1 -5 -18z"/>
<path d="M2409 498 c4 -28 6 -29 9 -9 2 13 0 27 -5 32 -6 6 -7 -3 -4 -23z"/>
<path d="M2430 506 c0 -14 3 -27 8 -29 4 -3 7 8 7 24 0 16 -3 29 -7 29 -5 0
-8 -11 -8 -24z"/>
<path d="M2656 517 c3 -10 9 -15 12 -12 3 3 0 11 -7 18 -10 9 -11 8 -5 -6z"/>
<path d="M2714 516 c-3 -9 -4 -23 0 -31 6 -17 26 -20 26 -4 0 5 -4 7 -10 4 -6
-3 -10 4 -10 17 0 18 2 20 10 8 5 -8 12 -12 15 -9 3 4 -1 12 -10 19 -12 10
-16 9 -21 -4z"/>
<path d="M2764 515 c-8 -20 2 -45 18 -45 10 0 10 3 -1 9 -8 5 -12 18 -8 30 6
24 -1 29 -9 6z"/>
<path d="M2842 500 c0 -19 2 -27 5 -17 2 9 2 25 0 35 -3 9 -5 1 -5 -18z"/>
<path d="M2864 516 c-8 -22 3 -49 19 -43 6 2 12 14 12 27 0 27 -22 39 -31 16z
m26 -16 c0 -11 -4 -20 -10 -20 -5 0 -10 9 -10 20 0 11 5 20 10 20 6 0 10 -9
10 -20z"/>
<path d="M2939 498 c4 -28 6 -29 9 -9 2 13 0 27 -5 32 -6 6 -7 -3 -4 -23z"/>
<path d="M2122 500 c0 -14 2 -19 5 -12 2 6 2 18 0 25 -3 6 -5 1 -5 -13z"/>
<path d="M2150 501 c0 -11 4 -22 9 -25 4 -3 6 6 3 19 -5 30 -12 33 -12 6z"/>
<path d="M2202 500 c0 -14 2 -19 5 -12 2 6 2 18 0 25 -3 6 -5 1 -5 -13z"/>
<path d="M2912 500 c0 -14 2 -19 5 -12 2 6 2 18 0 25 -3 6 -5 1 -5 -13z"/>
<path d="M2010 500 c0 -5 5 -10 10 -10 6 0 10 5 10 10 0 6 -4 10 -10 10 -5 0
-10 -4 -10 -10z"/>
<path d="M2311 494 c0 -11 3 -14 6 -6 3 7 2 16 -1 19 -3 4 -6 -2 -5 -13z"/>
<path d="M2631 498 c-1 -22 18 -33 32 -19 9 9 8 11 -5 6 -11 -4 -18 0 -21 12
-4 15 -5 16 -6 1z"/>
<path d="M2030 480 c-9 -6 -10 -10 -3 -10 6 0 15 5 18 10 8 12 4 12 -15 0z"/>
<path d="M1980 420 c-22 -22 -28 -97 -10 -131 15 -27 66 -26 80 2 15 27 4 38
-13 15 -7 -10 -22 -17 -33 -14 -15 2 -20 13 -22 51 -3 49 9 77 34 77 8 0 14
-7 14 -15 0 -8 7 -15 15 -15 9 0 12 6 8 18 -14 36 -43 42 -73 12z"/>
<path d="M2108 429 c-31 -18 -22 -57 17 -81 22 -12 35 -27 33 -37 -5 -23 -39
-26 -55 -5 -17 23 -28 12 -13 -15 7 -14 21 -21 38 -21 61 0 72 56 17 89 -19
11 -35 27 -35 36 0 23 31 31 45 12 13 -19 25 -22 25 -8 0 14 -29 41 -43 41 -7
0 -20 -5 -29 -11z"/>
<path d="M2230 420 c-14 -14 -20 -33 -20 -66 0 -60 14 -84 48 -84 42 0 52 17
52 87 0 59 -2 64 -26 73 -33 13 -31 13 -54 -10z m58 -68 l3 -63 -28 3 c-26 3
-28 7 -31 51 -3 52 11 80 37 75 12 -2 17 -18 19 -66z"/>
<path d="M2400 421 c23 -6 25 -12 28 -79 4 -95 22 -93 22 2 0 69 2 75 23 79
12 2 -5 4 -38 5 -39 0 -51 -2 -35 -7z"/>
<path d="M862 355 c0 -36 2 -43 7 -25 4 14 13 25 21 25 8 0 17 -11 22 -25 6
-23 7 -23 5 5 -2 22 -7 31 -24 33 -12 2 -24 11 -26 20 -3 9 -5 -5 -5 -33z"/>
<path d="M1233 355 c0 -27 2 -38 4 -22 2 15 2 37 0 50 -2 12 -4 0 -4 -28z"/>
<path d="M1423 355 c0 -27 2 -38 4 -22 5 34 33 36 33 2 0 -14 5 -25 10 -25 6
0 10 6 10 14 0 27 -12 46 -30 46 -10 0 -21 8 -23 18 -3 9 -5 -5 -4 -33z"/>
<path d="M1319 378 c-3 -28 3 -54 14 -65 11 -11 13 11 8 70 -2 12 -21 8 -22
-5z"/>
<path d="M2506 374 c-19 -18 -21 -75 -4 -92 17 -17 58 -15 65 3 9 24 -5 31
-21 10 -14 -19 -36 -13 -36 11 0 9 11 14 30 14 25 0 30 4 30 23 0 43 -35 60
-64 31z m44 -19 c0 -8 -9 -15 -20 -15 -20 0 -26 11 -13 23 12 13 33 7 33 -8z"/>
<path d="M2623 383 c-7 -2 -13 -12 -13 -21 0 -12 3 -13 12 -4 17 17 38 15 38
-3 0 -8 -8 -15 -19 -15 -26 0 -44 -25 -36 -49 5 -16 14 -20 41 -19 34 1 34 2
34 48 0 59 -18 79 -57 63z m37 -72 c0 -11 -5 -23 -11 -27 -15 -9 -33 12 -26
30 9 23 37 20 37 -3z"/>
<path d="M2733 382 c-21 -3 -23 -9 -23 -58 0 -66 18 -72 22 -7 2 36 7 49 21
51 14 3 17 -4 17 -47 0 -28 5 -51 10 -51 6 0 10 23 10 51 0 43 3 50 18 47 13
-2 18 -15 20 -51 2 -26 7 -47 13 -47 14 0 11 98 -3 107 -14 8 -68 10 -105 5z"/>
<path d="M2886 375 c-19 -20 -12 -39 20 -53 26 -12 31 -27 12 -38 -6 -4 -17 1
-24 11 -8 10 -17 16 -20 12 -13 -13 20 -38 45 -35 40 5 41 43 1 63 -17 9 -28
20 -25 25 9 14 33 12 38 -2 2 -7 8 -9 13 -5 5 5 1 15 -10 23 -25 18 -31 18
-50 -1z"/>
<path d="M997 363 c-4 -3 -7 -16 -7 -29 0 -24 28 -40 43 -25 6 6 2 9 -9 8 -13
-1 -20 6 -22 21 -4 24 22 32 31 10 3 -8 6 -6 6 5 1 17 -28 24 -42 10z"/>
<path d="M1130 361 c14 -5 18 -10 10 -10 -12 -1 -13 -3 -1 -10 7 -5 10 -14 7
-20 -4 -6 -2 -11 4 -11 6 0 10 12 8 28 -2 21 -9 27 -28 29 l-25 2 25 -8z"/>
<path d="M1110 326 c0 -8 4 -17 9 -20 5 -4 7 3 4 14 -6 23 -13 26 -13 6z"/>
<path d="M232 280 c0 -14 2 -19 5 -12 2 6 2 18 0 25 -3 6 -5 1 -5 -13z"/>
<path d="M95 251 c-3 -5 -1 -12 5 -16 5 -3 10 1 10 9 0 18 -6 21 -15 7z"/>
<path d="M1957 232 c6 -4 13 -23 16 -42 l4 -35 1 37 c1 20 8 39 15 41 6 3 -1
6 -18 6 -17 0 -25 -3 -18 -7z"/>
<path d="M2325 229 c-4 -6 -4 -13 -1 -16 3 -3 1 -12 -5 -19 -15 -18 -3 -34 24
-34 16 0 23 6 24 20 1 11 -2 18 -8 15 -5 -4 -9 1 -9 10 0 9 -4 13 -10 10 -5
-3 -10 -2 -10 4 0 5 6 12 13 14 9 4 9 6 0 6 -6 1 -15 -4 -18 -10z m20 -49 c3
-5 -1 -10 -9 -10 -9 0 -16 5 -16 10 0 6 4 10 9 10 6 0 13 -4 16 -10z"/>
<path d="M2410 200 c0 -33 3 -40 20 -40 11 0 20 4 20 10 0 5 -7 7 -15 4 -11
-5 -15 2 -15 26 0 25 3 31 16 26 8 -3 12 -2 9 4 -3 6 -13 10 -21 10 -10 0 -14
-12 -14 -40z"/>
<path d="M2623 200 c0 -25 2 -35 4 -22 2 12 2 32 0 45 -2 12 -4 2 -4 -23z"/>
<path d="M161 214 c0 -11 3 -14 6 -6 3 7 2 16 -1 19 -3 4 -6 -2 -5 -13z"/>
<path d="M186 223 c6 -4 14 -15 17 -23 5 -11 6 -9 4 4 -1 11 -9 21 -17 23 -10
3 -11 2 -4 -4z"/>
<path d="M221 214 c0 -11 3 -14 6 -6 3 7 2 16 -1 19 -3 4 -6 -2 -5 -13z"/>
<path d="M248 200 c2 -16 6 -30 8 -30 2 0 4 14 4 30 0 17 -4 30 -8 30 -5 0 -7
-13 -4 -30z"/>
<path d="M374 218 c-4 -6 -3 -8 4 -4 5 3 13 0 15 -6 3 -8 6 -6 6 5 1 19 -14
23 -25 5z"/>
<path d="M411 204 c-1 -22 4 -34 16 -38 10 -4 14 -4 10 0 -4 4 -1 14 6 23 10
14 10 14 -5 3 -15 -12 -17 -10 -21 15 -4 28 -4 28 -6 -3z"/>
<path d="M492 218 c-13 -13 -16 -58 -4 -58 4 0 8 12 7 28 0 20 5 27 18 26 9
-1 17 2 17 7 0 13 -24 11 -38 -3z"/>
<path d="M600 205 c0 -14 2 -25 4 -25 2 0 6 11 8 25 3 14 1 25 -3 25 -5 0 -9
-11 -9 -25z"/>
<path d="M706 223 c6 -4 14 -15 17 -23 5 -11 6 -9 4 4 -1 11 -9 21 -17 23 -10
3 -11 2 -4 -4z"/>
<path d="M928 205 c2 -14 6 -25 8 -25 2 0 4 11 4 25 0 14 -4 25 -9 25 -4 0 -6
-11 -3 -25z"/>
<path d="M980 210 c0 -22 -16 -27 -23 -7 -2 6 -6 0 -9 -16 -3 -15 -1 -30 5
-34 6 -3 7 -1 3 5 -3 6 2 16 12 21 20 11 37 51 21 51 -5 0 -9 -9 -9 -20z"/>
<path d="M1032 218 c-14 -14 -16 -58 -3 -58 5 0 7 10 4 21 -4 15 0 27 12 35
11 8 14 14 9 14 -6 0 -15 -5 -22 -12z"/>
<path d="M1082 218 c-13 -13 -16 -58 -4 -58 4 0 8 12 7 28 0 20 5 27 17 26 10
-1 15 2 12 7 -7 12 -18 11 -32 -3z"/>
<path d="M1142 218 c-7 -7 -12 -21 -11 -32 1 -21 2 -19 15 24 5 13 6 13 14 0
8 -13 10 -12 10 3 0 20 -11 22 -28 5z"/>
<path d="M1182 205 c0 -16 2 -22 5 -12 2 9 2 23 0 30 -3 6 -5 -1 -5 -18z"/>
<path d="M1207 224 c-4 -4 -7 -20 -7 -36 0 -30 17 -37 38 -16 9 9 12 9 12 0 0
-7 5 -12 11 -12 8 0 7 5 -1 15 -9 11 -16 13 -24 5 -17 -17 -26 -12 -26 15 0
25 23 35 33 15 3 -6 4 -5 3 2 -3 15 -28 22 -39 12z"/>
<path d="M1320 220 c0 -6 5 -8 11 -4 6 3 16 0 21 -7 8 -12 9 -11 5 1 -4 18
-37 27 -37 10z"/>
<path d="M771 204 c0 -11 3 -14 6 -6 3 7 2 16 -1 19 -3 4 -6 -2 -5 -13z"/>
<path d="M792 200 c0 -14 2 -19 5 -12 2 6 2 18 0 25 -3 6 -5 1 -5 -13z"/>
<path d="M1398 197 c-3 -19 -2 -25 4 -19 6 6 8 18 6 28 -3 14 -5 12 -10 -9z"/>
<path d="M2930 190 c0 -16 4 -30 8 -30 5 0 7 14 4 30 -2 17 -6 30 -8 30 -2 0
-4 -13 -4 -30z"/>
<path d="M67 196 c-4 -10 -1 -13 8 -9 8 3 12 9 9 14 -7 12 -11 11 -17 -5z"/>
<path d="M541 188 c-1 -22 4 -28 19 -28 11 0 20 4 20 10 0 5 -6 7 -14 4 -9 -4
-16 3 -19 18 -4 21 -4 20 -6 -4z"/>
<path d="M630 206 c0 -1 14 -13 31 -25 28 -21 30 -21 20 -3 -8 15 -51 39 -51
28z"/>
<path d="M1280 200 c-12 -7 -12 -10 -1 -10 8 0 11 -6 6 -17 -5 -14 -3 -15 5
-7 18 18 9 46 -10 34z"/>
<path d="M2000 185 c0 -14 2 -25 4 -25 2 0 6 11 8 25 3 14 1 25 -3 25 -5 0 -9
-11 -9 -25z"/>
<path d="M2060 191 c0 -11 -6 -22 -12 -24 -8 -3 -6 -6 5 -6 12 -1 17 7 17 24
0 14 -2 25 -5 25 -3 0 -5 -9 -5 -19z"/>
<path d="M2092 185 c0 -16 2 -22 5 -12 2 9 2 23 0 30 -3 6 -5 -1 -5 -18z"/>
<path d="M2112 185 c0 -16 2 -22 5 -12 2 9 2 23 0 30 -3 6 -5 -1 -5 -18z"/>
<path d="M2142 185 c0 -16 2 -22 5 -12 2 9 2 23 0 30 -3 6 -5 -1 -5 -18z"/>
<path d="M2162 185 c0 -16 2 -22 5 -12 2 9 2 23 0 30 -3 6 -5 -1 -5 -18z"/>
<path d="M2192 185 c0 -16 2 -22 5 -12 2 9 2 23 0 30 -3 6 -5 -1 -5 -18z"/>
<path d="M2241 188 c-1 -20 4 -28 17 -29 15 0 14 -2 -3 -10 l-20 -9 20 3 c15
1 21 11 23 35 2 17 -1 32 -6 32 -6 0 -8 -9 -5 -20 3 -11 1 -20 -5 -20 -6 0
-13 10 -15 23 -4 19 -4 18 -6 -5z"/>
<path d="M2472 190 c2 -14 10 -26 21 -28 13 -3 17 3 17 25 0 22 -2 25 -10 13
-9 -13 -11 -13 -20 0 -9 12 -10 10 -8 -10z"/>
<path d="M2571 188 c-1 -20 4 -28 17 -28 14 0 15 2 2 10 -13 8 -12 10 3 10 19
0 23 15 5 26 -7 4 -8 3 -4 -4 4 -7 3 -12 -3 -12 -5 0 -12 6 -14 13 -3 6 -6 0
-6 -15z"/>
<path d="M2645 199 c-4 -6 -5 -12 -2 -15 2 -3 7 2 10 11 7 17 1 20 -8 4z"/>
<path d="M2670 191 c0 -11 -6 -22 -12 -24 -8 -3 -6 -6 5 -6 12 -1 17 7 17 24
0 14 -2 25 -5 25 -3 0 -5 -9 -5 -19z"/>
<path d="M2701 177 c-1 -32 1 -36 13 -25 8 7 10 15 6 18 -4 3 -10 14 -13 25
-3 12 -5 4 -6 -18z"/>
<path d="M2726 197 c3 -10 9 -15 12 -12 3 3 0 11 -7 18 -10 9 -11 8 -5 -6z"/>
<path d="M2752 185 c0 -16 2 -22 5 -12 2 9 2 23 0 30 -3 6 -5 -1 -5 -18z"/>
<path d="M2802 185 c0 -16 2 -22 5 -12 2 9 2 23 0 30 -3 6 -5 -1 -5 -18z"/>
<path d="M2827 203 c-13 -12 -7 -23 13 -23 13 0 20 6 19 18 0 10 -3 12 -6 5
-2 -7 -9 -13 -14 -13 -6 0 -7 5 -4 10 7 11 2 13 -8 3z"/>
<path d="M2882 185 c0 -16 2 -22 5 -12 2 9 2 23 0 30 -3 6 -5 -1 -5 -18z"/>
<path d="M111 184 c0 -11 3 -14 6 -6 3 7 2 16 -1 19 -3 4 -6 -2 -5 -13z"/>
<path d="M297 180 c-3 -11 -1 -20 4 -20 5 0 9 9 9 20 0 11 -2 20 -4 20 -2 0
-6 -9 -9 -20z"/>
<path d="M361 184 c0 -11 3 -14 6 -6 3 7 2 16 -1 19 -3 4 -6 -2 -5 -13z"/>
<path d="M457 180 c-3 -11 -1 -20 4 -20 5 0 9 9 9 20 0 11 -2 20 -4 20 -2 0
-6 -9 -9 -20z"/>
<path d="M823 186 c1 -11 9 -21 17 -23 10 -3 11 -2 4 4 -6 4 -14 15 -17 23 -5
11 -6 9 -4 -4z"/>
<path d="M1311 184 c0 -11 3 -14 6 -6 3 7 2 16 -1 19 -3 4 -6 -2 -5 -13z"/>
<path d="M1360 175 c0 -8 4 -15 10 -15 5 0 7 7 4 15 -4 8 -8 15 -10 15 -2 0
-4 -7 -4 -15z"/>
<path d="M2537 183 c-4 -3 -7 -11 -7 -17 0 -6 5 -5 12 2 6 6 9 14 7 17 -3 3
-9 2 -12 -2z"/>
<path d="M150 163 c0 -6 9 -9 20 -6 30 8 32 18 4 18 -13 0 -24 -5 -24 -12z"/>
<path d="M736 168 c3 -4 12 -8 20 -8 8 0 14 4 14 8 0 4 -9 8 -19 8 -11 0 -17
-4 -15 -8z"/>
<path d="M2838 163 c7 -3 16 -2 19 1 4 3 -2 6 -13 5 -11 0 -14 -3 -6 -6z"/>
<path d="M1191 134 c0 -11 3 -14 6 -6 3 7 2 16 -1 19 -3 4 -6 -2 -5 -13z"/>
<path d="M141 104 c0 -11 3 -14 6 -6 3 7 2 16 -1 19 -3 4 -6 -2 -5 -13z"/>
</g>
</svg>
